  <svg
    viewBox="38 38 180 146"
    role="img"
    aria-label="Psyche Support"
    xmlns="http://www.w3.org/2000/svg"
  >
    <rect x="124" y="90" width="8" height="60" rx="4" fill="#0E8AA4" />
    <circle cx="128" cy="80" r="6" fill="#0E8AA4" />

    <path
      d="M124 74 C110 60, 96 58, 88 64 M132 74 C146 60, 160 58, 168 64"
      stroke="#0E8AA4"
      stroke-width="3"
      fill="none"
    />

    <path
      d="M128 92
        C 100 40, 40 70, 70 120
        C 85 145, 115 130, 122 115 Z"
      fill="#0E8AA4"
    />
    
    <path
      d="M128 92
        C 156 40, 216 70, 186 120
        C 171 145, 141 130, 134 115 Z"
      fill="#2EC2C8"
    />

    <path
      d="M124 120
        C 80 130, 60 170, 110 180
        C 120 176, 122 160, 122 145 Z"
      fill="#199FAF"
    />

    
    <path
      d="M132 120
        C 176 130, 196 170, 146 180
        C 136 176, 134 160, 134 145 Z"
      fill="#199FAF"
    />

    <text
      x="96" y="110"
      font-size="26"
      font-weight="bold"
      font-family="Inter, system-ui, sans-serif"
      text-anchor="middle"
      dominant-baseline="middle"
      fill="#FFFFFF"
    >P</text>

    <text
      x="160" y="110"
      font-size="26"
      font-weight="bold"
      font-family="Inter, system-ui, sans-serif"
      text-anchor="middle"
      dominant-baseline="middle"
      fill="#FFFFFF"
    >S</text>
  </svg>